<svg xmlns="http://www.w3.org/2000/svg" xmlns:xlink="http://www.w3.org/1999/xlink" width="500" zoomAndPan="magnify" viewBox="0 0 375 374.999991" height="500" preserveAspectRatio="xMidYMid meet" version="1.0"><defs><clipPath id="6b44678fab"><path d="M 112.5 112.5 L 262.5 112.5 L 262.5 262.5 L 112.5 262.5 Z M 112.5 112.5 " clip-rule="nonzero"/></clipPath></defs><g clip-path="url(#6b44678fab)"><path fill="#673ab7" d="M 262.5 241.667969 C 262.5 253.175781 253.175781 262.5 241.667969 262.5 L 133.332031 262.5 C 121.828125 262.5 112.5 253.175781 112.5 241.667969 L 112.5 133.332031 C 112.5 121.824219 121.828125 112.5 133.332031 112.5 L 241.667969 112.5 C 253.175781 112.5 262.5 121.824219 262.5 133.332031 Z M 262.5 241.667969 " fill-opacity="1" fill-rule="nonzero"/></g><path fill="#ffffff" d="M 225.125 194.167969 C 222.417969 190.417969 218.5 187.832031 213.457031 186.457031 C 213.457031 186.457031 217.707031 184.917969 221.542969 179.167969 C 223.832031 175.5 225 171.082031 225 165.917969 C 225 156.957031 221.75 150.082031 215.25 145.375 C 208.75 140.667969 201.417969 137.5 188.957031 137.5 L 150 137.5 L 150 237.5 L 193.457031 237.5 C 205.25 237.417969 214.125 234.875 220.167969 230 C 226.167969 225.042969 229.167969 217.707031 229.167969 207.917969 C 229.167969 202.5 227.832031 197.917969 225.125 194.167969 Z M 175 154.167969 C 175 154.167969 192.375 154.167969 192.707031 154.167969 C 199.042969 154.167969 204.167969 159.292969 204.167969 165.625 C 204.167969 171.957031 199.042969 177.082031 192.707031 177.082031 C 192.375 177.082031 175 177.082031 175 177.082031 Z M 195.832031 220.832031 L 175 220.832031 L 175 195.832031 L 195.832031 195.832031 C 202.75 195.832031 208.332031 201.417969 208.332031 208.332031 C 208.332031 215.25 202.75 220.832031 195.832031 220.832031 Z M 195.832031 220.832031 " fill-opacity="1" fill-rule="nonzero"/></svg>